<?xml version="1.0" encoding="UTF-8"?><svg id="Camada_2" xmlns="http://www.w3.org/2000/svg" viewBox="0 0 46.05 52.7"><defs><style>.cls-1{fill:#db695c;stroke-width:0px;}</style></defs><g id="Camada_1-2"><path class="cls-1" d="m2.38,0h6.76C10.45,0,11.51,1.06,11.51,2.38v47.95c0,1.31-1.06,2.37-2.37,2.37H2.38C1.07,52.7,0,51.63,0,50.32V2.38C0,1.07,1.06,0,2.38,0Z"/><path class="cls-1" d="m36.91,0h6.76c1.31,0,2.37,1.06,2.37,2.37v47.94c0,1.31-1.07,2.38-2.38,2.38h-6.76c-1.31,0-2.38-1.06-2.38-2.38V2.38C34.53,1.07,35.6,0,36.91,0Z"/></g></svg>